<svg width="24" height="24" viewBox="0 0 24 24" fill="none" xmlns="http://www.w3.org/2000/svg">
  <path d="M9 19C4 20.5 4 16.5 2 16M16 22V18.13C16.0375 17.6532 15.9731 17.1738 15.811 16.7238C15.6489 16.2738 15.3929 15.8634 15.06 15.52C17.2 15.17 19.5 14.35 19.5 9.3C19.4998 8.5824 19.2819 7.8833 18.877 7.2873C19.2728 6.7289 19.5293 6.026 19.595 5.29C19.6607 4.554 19.5325 3.8209 19.22 3.18C19.22 3.18 18.58 2.97 16.84 4.15C15.307 3.734 13.692 3.734 12.16 4.15C10.42 2.97 9.78 3.18 9.78 3.18C9.4675 3.8209 9.3393 4.554 9.405 5.29C9.4707 6.026 9.7272 6.7289 10.123 7.2873C9.7181 7.8833 9.5002 8.5824 9.5 9.3C9.5 14.33 11.8 15.16 14 15.53C13.6671 15.8634 13.4111 16.2738 13.249 16.7238C13.0869 17.1738 13.0225 17.6532 13.06 18.13V22" stroke="currentColor" stroke-width="2" stroke-linecap="round" stroke-linejoin="round"/>
</svg>